<?xml version="1.0" encoding="UTF-8" ?><svg xmlns="http://www.w3.org/2000/svg" version="1.1" viewBox="-4 -4 29 29" width="29" height="29" shape-rendering="crispedges"><path d="M8 1L8 0L9 0L9 1ZM4 5L3 5L2 5L2 4L2 3L2 2L3 2L4 2L5 2L5 3L5 4L5 5ZM18 5L17 5L16 5L16 4L16 3L16 2L17 2L18 2L19 2L19 3L19 4L19 5ZM6 6L6 5L6 4L6 3L6 2L6 1L5 1L4 1L3 1L2 1L1 1L1 2L1 3L1 4L1 5L1 6L2 6L3 6L4 6L5 6ZM20 6L20 5L20 4L20 3L20 2L20 1L19 1L18 1L17 1L16 1L15 1L15 2L15 3L15 4L15 5L15 6L16 6L17 6L18 6L19 6ZM6 7L5 7L4 7L3 7L2 7L1 7L0 7L0 6L0 5L0 4L0 3L0 2L0 1L0 0L1 0L2 0L3 0L4 0L5 0L6 0L7 0L7 1L7 2L7 3L7 4L7 5L7 6L7 7ZM10 7L10 6L9 6L9 7L8 7L8 6L9 6L9 5L10 5L11 5L11 4L11 3L11 2L10 2L10 3L10 4L9 4L9 5L8 5L8 4L8 3L8 2L9 2L10 2L10 1L10 0L11 0L11 1L12 1L12 0L13 0L13 1L12 1L12 2L12 3L12 4L13 4L13 5L12 5L12 6L11 6L11 7ZM20 7L19 7L18 7L17 7L16 7L15 7L14 7L14 6L14 5L14 4L14 3L14 2L14 1L14 0L15 0L16 0L17 0L18 0L19 0L20 0L21 0L21 1L21 2L21 3L21 4L21 5L21 6L21 7ZM0 10L0 9L0 8L1 8L2 8L3 8L4 8L4 9L3 9L2 9L1 9L1 10ZM5 10L4 10L4 9L5 9L6 9L6 8L7 8L7 9L6 9L6 10ZM18 11L18 10L17 10L16 10L16 11L17 11ZM7 12L7 11L6 11L6 12ZM1 13L0 13L0 12L1 12L1 11L2 11L2 10L3 10L3 11L4 11L4 12L3 12L2 12L2 13ZM6 13L5 13L5 12L5 11L6 11L6 10L7 10L7 9L8 9L8 8L9 8L10 8L11 8L12 8L12 7L12 6L13 6L13 7L13 8L14 8L14 9L14 10L13 10L13 9L12 9L11 9L10 9L10 10L9 10L9 9L8 9L8 10L8 11L8 12L7 12L7 13ZM12 13L12 12L11 12L10 12L9 12L9 13L10 13L11 13ZM17 13L17 12L16 12L15 12L15 13L16 13ZM19 14L19 13L19 12L20 12L20 11L19 11L18 11L18 12L18 13L17 13L17 14L18 14ZM18 16L18 15L17 15L17 16ZM19 18L18 18L17 18L17 17L16 17L15 17L15 16L16 16L16 15L15 15L15 14L14 14L13 14L12 14L12 15L11 15L11 14L10 14L9 14L8 14L8 13L8 12L9 12L9 11L10 11L11 11L12 11L13 11L13 12L14 12L15 12L15 11L14 11L14 10L15 10L16 10L16 9L16 8L17 8L18 8L19 8L19 9L20 9L20 8L21 8L21 9L21 10L21 11L21 12L20 12L20 13L20 14L19 14L19 15L20 15L21 15L21 16L20 16L20 17L20 18ZM4 19L3 19L2 19L2 18L2 17L2 16L3 16L4 16L5 16L5 17L5 18L5 19ZM12 19L12 18L12 17L12 16L13 16L13 15L14 15L14 16L13 16L13 17L14 17L14 18L13 18L13 19ZM6 20L6 19L6 18L6 17L6 16L6 15L5 15L4 15L3 15L2 15L1 15L1 16L1 17L1 18L1 19L1 20L2 20L3 20L4 20L5 20ZM20 20L20 19L21 19L21 20ZM6 21L5 21L4 21L3 21L2 21L1 21L0 21L0 20L0 19L0 18L0 17L0 16L0 15L0 14L1 14L2 14L3 14L4 14L5 14L6 14L7 14L7 15L7 16L7 17L7 18L7 19L7 20L7 21ZM9 21L8 21L8 20L8 19L8 18L8 17L9 17L9 16L10 16L11 16L11 17L11 18L10 18L10 19L9 19L9 20L10 20L10 19L11 19L11 20L10 20L10 21ZM11 21L11 20L12 20L12 21ZM14 21L13 21L13 20L13 19L14 19L14 18L15 18L15 19L16 19L16 20L15 20L15 21ZM18 21L17 21L17 20L18 20L19 20L19 21Z" fill="black"></path></svg>